<svg width="20" height="29" viewBox="0 0 20 29" fill="none" xmlns="http://www.w3.org/2000/svg">
<path fill-rule="evenodd" clip-rule="evenodd" d="M0 10V25H4V29H6V25H11V29H13V24.9381C16.9463 24.446 20 21.0796 20 17V10C20 4.47715 15.5228 0 10 0C4.47715 0 0 4.47715 0 10ZM13 8C13 9.10457 13.8954 10 15 10C16.1046 10 17 9.10457 17 8C17 6.89543 16.1046 6 15 6C13.8954 6 13 6.89543 13 8ZM8 10C6.89543 10 6 9.10457 6 8C6 6.89543 6.89543 6 8 6C9.10457 6 10 6.89543 10 8C10 9.10457 9.10457 10 8 10Z" fill="#1A202C"/>
</svg>
