<svg width="50" height="24" viewBox="0 0 50 24" fill="none" xmlns="http://www.w3.org/2000/svg">
<path d="M14 19L6.5 23.3301L6.5 14.6699L14 19Z" fill="#ED64A6"/>
<rect width="50" height="19" rx="9.5" fill="#ED64A6"/>
<path d="M8.75195 13V5.80273H10.2412V8.54688H13.0537V5.80273H14.5479V13H13.0537V9.78711H10.2412V13H8.75195ZM17.9756 8.68359C17.6533 8.68359 17.4027 8.78451 17.2236 8.98633C17.0479 9.18815 16.9372 9.46159 16.8916 9.80664H19.0547C19.0319 9.4388 18.9196 9.16048 18.7178 8.97168C18.5192 8.77962 18.2718 8.68359 17.9756 8.68359ZM17.9756 7.53613C18.4183 7.53613 18.8171 7.61914 19.1719 7.78516C19.5267 7.95117 19.8197 8.21322 20.0508 8.57129C20.2591 8.88704 20.3942 9.25326 20.4561 9.66992C20.4919 9.91406 20.5065 10.2656 20.5 10.7246H16.8574C16.877 11.2585 17.0446 11.6328 17.3604 11.8477C17.5524 11.9811 17.7835 12.0479 18.0537 12.0479C18.3402 12.0479 18.5729 11.9665 18.752 11.8037C18.8496 11.7158 18.9359 11.5938 19.0107 11.4375H20.4316C20.3958 11.7533 20.2314 12.0739 19.9385 12.3994C19.4827 12.917 18.8447 13.1758 18.0244 13.1758C17.3473 13.1758 16.75 12.9577 16.2324 12.5215C15.7148 12.0853 15.4561 11.3757 15.4561 10.3926C15.4561 9.47135 15.6888 8.76497 16.1543 8.27344C16.623 7.7819 17.2301 7.53613 17.9756 7.53613ZM22.8633 13H21.4717V5.80273H22.8633V13ZM25.6465 13H24.2549V5.80273H25.6465V13ZM29.3965 12.0186C29.8034 12.0186 30.1159 11.8737 30.334 11.584C30.5521 11.2943 30.6611 10.8825 30.6611 10.3486C30.6611 9.81478 30.5521 9.40462 30.334 9.11816C30.1159 8.82845 29.8034 8.68359 29.3965 8.68359C28.9896 8.68359 28.6755 8.82845 28.4541 9.11816C28.236 9.40462 28.127 9.81478 28.127 10.3486C28.127 10.8825 28.236 11.2943 28.4541 11.584C28.6755 11.8737 28.9896 12.0186 29.3965 12.0186ZM32.1211 10.3486C32.1211 11.1299 31.8965 11.7988 31.4473 12.3555C30.998 12.9089 30.3161 13.1855 29.4014 13.1855C28.4867 13.1855 27.8047 12.9089 27.3555 12.3555C26.9062 11.7988 26.6816 11.1299 26.6816 10.3486C26.6816 9.5804 26.9062 8.91471 27.3555 8.35156C27.8047 7.78841 28.4867 7.50684 29.4014 7.50684C30.3161 7.50684 30.998 7.78841 31.4473 8.35156C31.8965 8.91471 32.1211 9.5804 32.1211 10.3486ZM36.3887 7.8877H37.8682V9.34277H36.3887V7.8877ZM36.3887 11.5449H37.8682V13H36.3887V11.5449ZM39.7627 5.68555C40.2575 6.37565 40.6335 7.02018 40.8906 7.61914C41.2715 8.49805 41.4619 9.38346 41.4619 10.2754C41.4619 11.2552 41.2357 12.2513 40.7832 13.2637C40.5293 13.8301 40.29 14.2565 40.0654 14.543L39.7188 15.0166H38.6885C39.1182 14.2419 39.4176 13.6071 39.5869 13.1123C39.8766 12.2757 40.0215 11.3594 40.0215 10.3633C40.0215 9.72526 39.9694 9.13607 39.8652 8.5957C39.7057 7.77214 39.4209 6.98438 39.0107 6.23242L38.7129 5.68555H39.7627Z" fill="#E2E8F0"/>
</svg>
