<svg width="20" height="29" viewBox="0 0 20 29" fill="none" xmlns="http://www.w3.org/2000/svg">
<path fill-rule="evenodd" clip-rule="evenodd" d="M20 10V25H16V29H14V25H9V29H7V24.9381C3.05369 24.446 0 21.0796 0 17V10C0 4.47715 4.47715 0 10 0C15.5228 0 20 4.47715 20 10ZM7 8C7 9.10457 6.10457 10 5 10C3.89543 10 3 9.10457 3 8C3 6.89543 3.89543 6 5 6C6.10457 6 7 6.89543 7 8ZM12 10C13.1046 10 14 9.10457 14 8C14 6.89543 13.1046 6 12 6C10.8954 6 10 6.89543 10 8C10 9.10457 10.8954 10 12 10Z" fill="#1A202C"/>
</svg>
